<?xml version="1.0" encoding="UTF-8" standalone="no"?>
<!-- Created with Inkscape (http://www.inkscape.org/) -->

<svg
   width="103.153mm"
   height="103.153mm"
   viewBox="0 0 103.153 103.153"
   version="1.1"
   id="svg5"
   inkscape:version="1.1.1 (3bf5ae0d25, 2021-09-20)"
   sodipodi:docname="logoSquare.svg"
   xmlns:inkscape="http://www.inkscape.org/namespaces/inkscape"
   xmlns:sodipodi="http://sodipodi.sourceforge.net/DTD/sodipodi-0.dtd"
   xmlns="http://www.w3.org/2000/svg"
   xmlns:svg="http://www.w3.org/2000/svg">
  <sodipodi:namedview
     id="namedview7"
     pagecolor="#ffffff"
     bordercolor="#111111"
     borderopacity="1"
     inkscape:pageshadow="0"
     inkscape:pageopacity="0"
     inkscape:pagecheckerboard="1"
     inkscape:document-units="mm"
     showgrid="false"
     inkscape:zoom="1.4823794"
     inkscape:cx="171.34615"
     inkscape:cy="231.04746"
     inkscape:window-width="1920"
     inkscape:window-height="1017"
     inkscape:window-x="-8"
     inkscape:window-y="-8"
     inkscape:window-maximized="1"
     inkscape:current-layer="layer1"
     inkscape:snap-object-midpoints="true"
     inkscape:snap-grids="true"
     inkscape:snap-others="true"
     inkscape:snap-to-guides="true" />
  <defs
     id="defs2" />
  <g
     inkscape:label="Layer 1"
     inkscape:groupmode="layer"
     id="layer1"
     transform="translate(-255.29024,-134.7903)" />
  <g
     inkscape:groupmode="layer"
     id="layer2"
     inkscape:label="Layer 2"
     transform="translate(-255.29024,-134.7903)">
    <path
       id="use9464-7"
       style="fill:#ff0022;fill-opacity:1;stroke-width:0.185476"
       d="m 280.87175,209.06341 -5.48144,-10.04976 -4.38519,-8.0399 -0.82217,-1.50738 6.53225,-3.56288 6.53252,-3.56303 -3.56303,-6.53251 -3.01476,-5.52734 -3.01492,-5.52759 -0.27406,-0.50246 7.53745,-4.11114 -2.74072,-5.02487 -7.53743,4.11114 -5.52734,3.01476 3.01477,5.52734 3.01492,5.5276 3.01476,5.52733 -1.00518,0.54825 -6.53225,3.56289 -8.03991,4.38519 4.38519,8.0399 4.3852,8.0399 -2.0101,1.09637 -10.04975,5.48142 5.48143,10.04976 10.04975,-5.48143 z"
       inkscape:tile-x0="66.084642"
       inkscape:tile-y0="93.614454" />
    <path
       id="use9464-3-5"
       style="fill:#ff00ff;fill-opacity:1;stroke-width:0.185476"
       d="m 306.86691,199.25185 -9.51752,-6.36086 -7.61409,-5.08875 -1.42756,-0.95409 4.13452,-6.18629 4.13467,-6.18655 -6.18656,-4.13468 -5.2346,-3.49845 -5.23485,-3.49863 -0.47584,-0.31802 4.77072,-7.13826 -4.75876,-3.18043 -4.77072,7.13826 -3.49845,5.2346 5.2346,3.49845 5.23485,3.49863 5.2346,3.49845 -0.63622,0.95195 -4.1345,6.18631 -5.08876,7.6141 7.6141,5.08875 7.6141,5.08875 -1.27227,1.90364 -6.36086,9.51751 9.51751,6.36087 6.36087,-9.51751 z"
       inkscape:tile-x0="66.084642"
       inkscape:tile-y0="93.614454"
       inkscape:transform-center-x="-32.658525"
       inkscape:transform-center-y="39.739675" />
    <path
       id="use9464-7-2"
       style="fill:#00ffff;fill-opacity:1;stroke-width:0.185476"
       d="m 332.86207,209.06341 5.48144,-10.04976 4.38519,-8.0399 0.82217,-1.50738 -6.53225,-3.56288 -6.53252,-3.56303 3.56303,-6.53251 3.01476,-5.52734 3.01492,-5.52759 0.27406,-0.50246 -7.53745,-4.11114 2.74072,-5.02487 7.53743,4.11114 5.52734,3.01476 -3.01477,5.52734 -3.01492,5.5276 -3.01476,5.52733 1.00518,0.54825 6.53225,3.56289 8.03991,4.38519 -4.38519,8.0399 -4.3852,8.0399 2.0101,1.09637 10.04975,5.48142 -5.48143,10.04976 -10.04975,-5.48143 z"
       inkscape:tile-x0="66.084642"
       inkscape:tile-y0="93.614454" />
    <path
       id="use9464-3-5-9"
       style="fill:#4000ff;fill-opacity:1;stroke-width:0.185476"
       d="m 306.86691,199.25185 9.51752,-6.36086 7.61409,-5.08875 1.42756,-0.95409 -4.13452,-6.18629 -4.13467,-6.18655 6.18656,-4.13468 5.2346,-3.49845 5.23485,-3.49863 0.47584,-0.31802 -4.77072,-7.13826 4.75876,-3.18043 4.77072,7.13826 3.49845,5.2346 -5.2346,3.49845 -5.23485,3.49863 -5.2346,3.49845 0.63622,0.95195 4.1345,6.18631 5.08876,7.6141 -7.6141,5.08875 -7.6141,5.08875 1.27227,1.90364 6.36086,9.51751 -9.51751,6.36087 -6.36087,-9.51751 z"
       inkscape:tile-x0="66.084642"
       inkscape:tile-y0="93.614454"
       inkscape:transform-center-x="32.658525"
       inkscape:transform-center-y="39.739675" />
  </g>
</svg>
